<svg xmlns="http://www.w3.org/2000/svg" viewBox="-1 -28 14 20">
  <path d="m 5.635,-26.371 c -2.907,-0.019 -5.287,2.182 -5.305,4.905 -0.016,2.411 1.177,3.589 2.468,4.863 0.9,0.889 1.848,1.825 2.469,3.26 0.042,0.034 0.07,0.057 0.082,0.067 a 0.304,0.304 0 0 0 0.2,0.076 0.305,0.305 0 0 0 0.201,-0.073 c 0.003,-0.003 0.009,-0.005 0.017,-0.009 0.02,-0.008 0.05,-0.021 0.066,-0.058 0.618,-1.421 1.58,-2.345 2.498,-3.226 1.308,-1.256 2.528,-2.428 2.544,-4.832 0.018,-2.723 -2.333,-4.954 -5.24,-4.973 z m -0.051,7.801 c 1.44,0.009 2.615,-1.168 2.624,-2.629 0.01,-1.461 -1.15,-2.654 -2.59,-2.663 -1.44,-0.009 -2.614,1.168 -2.624,2.629 -0.009,1.461 1.15,2.654 2.59,2.663 z" fill="#95befa" fill-rule="evenodd"/>
  <path d="m 3.7,-12.357 c -0.24,-0.002 -0.437,0.264 -0.439,0.593 l -0.011,1.666 c -0.002,0.329 0.191,0.597 0.431,0.599 l 3.677,0.024 c 0.24,0.002 0.437,-0.264 0.439,-0.593 l 0.011,-1.666 c 0.002,-0.33 -0.191,-0.597 -0.431,-0.599 z" fill="#285daa" fill-rule="evenodd"/>
</svg>
